PathFileType	4	(X/Y/Z)	s01c0403.trc
DataRate	CameraRate	NumFrames	NumMarkers	Units	OrigDataRate	OrigDataStartFrame	OrigNumFrames
200	200	6	47	mm	200	0	2000
Frame#	Time	racr			lacr			c7			jug			rlel			rdr			llel			ldr			lic			ric			lasi			rasi			rpsi			lpsi			rgt			lgt			rth1			rth2			rth3			rth4			rlfc			rsh1			rsh2			rsh3			rsh4			rlmal			rmmal			rcal			rtoe			rmt5			lth1			lth2			lth4			lth3			llfc			lsh1			lsh2			lsh3			lsh4			llmal			lmmal			lcal			ltoe			lmt5			SBIKE			LBIKE			RBIKE			
		X1	Y1	Z1	X2	Y2	Z2	X3	Y3	Z3	X4	Y4	Z4	X5	Y5	Z5	X6	Y6	Z6	X7	Y7	Z7	X8	Y8	Z8	X9	Y9	Z9	X10	Y10	Z10	X11	Y11	Z11	X12	Y12	Z12	X13	Y13	Z13	X14	Y14	Z14	X15	Y15	Z15	X16	Y16	Z16	X17	Y17	Z17	X18	Y18	Z18	X19	Y19	Z19	X20	Y20	Z20	X21	Y21	Z21	X22	Y22	Z22	X23	Y23	Z23	X24	Y24	Z24	X25	Y25	Z25	X26	Y26	Z26	X27	Y27	Z27	X28	Y28	Z28	X29	Y29	Z29	X30	Y30	Z30	X31	Y31	Z31	X32	Y32	Z32	X33	Y33	Z33	X34	Y34	Z34	X35	Y35	Z35	X36	Y36	Z36	X37	Y37	Z37	X38	Y38	Z38	X39	Y39	Z39	X40	Y40	Z40	X41	Y41	Z41	X42	Y42	Z42	X43	Y43	Z43	X44	Y44	Z44	X45	Y45	Z45	X46	Y46	Z46	X47	Y47	Z47	
0	0.0000	448.416626	1363.653198	-92.824409	461.683289	1366.443970	-406.906921	0.000000	0.000000	-0.000000	0.000000	0.000000	-0.000000	542.764221	1103.409424	-11.806077	708.337341	897.030273	-51.041077	544.623962	1104.379028	-493.981934	710.877686	906.618530	-436.351593	117.076912	1162.752808	-432.827271	82.492714	1139.276001	-98.770195	96.995445	1109.758057	-407.626099	112.586220	1091.871704	-127.067734	-47.724648	1170.465942	-203.802826	-52.517601	1178.970459	-306.933075	26.922153	1013.421997	-75.582474	48.753658	1039.519897	-464.999756	92.985695	894.808716	-62.758293	141.784439	825.681763	-68.368889	187.270767	749.967041	-83.105072	187.431183	856.259399	-78.506012	217.383972	644.830994	-104.998734	151.672028	545.410522	-70.724174	125.319649	464.709747	-70.620522	89.325073	383.136200	-81.101334	171.851013	447.250854	-105.209328	38.904228	261.553833	-99.385681	0.000000	0.000000	-0.000000	-6.632553	229.671814	-155.466110	260.860779	190.088104	-136.236267	153.266708	167.360184	-69.306328	154.262405	979.130554	-466.733612	243.167953	980.351868	-472.199066	244.369781	1034.161499	-461.126556	328.286621	972.600403	-459.857971	435.972992	914.309937	-437.893951	348.592834	840.668457	-458.304138	304.454956	767.143005	-446.992950	259.436096	696.193604	-428.202637	354.317657	741.870728	-419.752411	195.282547	587.799805	-404.788971	223.329651	595.341919	-321.889709	139.756714	557.495972	-361.270111	410.907593	505.149658	-373.040466	303.302155	497.391785	-437.526459	-225.900620	892.549866	-254.804382	-13.228142	84.731209	-457.899506	-23.190437	81.016533	-57.741703	
1	0.0050	448.390869	1363.597534	-92.804245	461.674042	1366.413940	-406.926788	0.000000	0.000000	-0.000000	0.000000	0.000000	-0.000000	542.732056	1103.356689	-11.756459	708.301392	897.028076	-51.024555	544.594177	1104.367310	-493.967194	710.872864	906.601624	-436.306000	117.048225	1162.797485	-432.885254	82.476036	1139.261841	-98.743759	96.994583	1109.756714	-407.642029	112.575699	1091.909302	-127.018318	-47.677921	1170.462402	-203.818817	-52.502182	1178.973755	-306.933655	26.933006	1013.420105	-75.594162	48.741085	1039.513062	-464.990875	93.065948	894.830200	-62.781292	141.881348	825.703308	-68.405319	187.416718	750.019958	-83.153099	187.531128	856.306519	-78.559700	217.556305	644.900330	-105.036736	151.747589	545.528381	-70.748848	125.373344	464.902924	-70.623650	89.305771	383.281372	-81.130684	171.873978	447.334320	-105.252708	38.737038	261.817688	-99.412216	0.000000	0.000000	-0.000000	-6.804202	229.973450	-155.490158	260.655090	190.116623	-136.245117	153.023621	167.517776	-69.312859	154.281326	979.084229	-466.752960	243.179077	980.333374	-472.167572	244.522720	1034.304565	-461.272339	328.332153	972.552490	-459.818878	435.970764	914.242188	-437.845551	348.635254	840.573364	-458.274933	304.544769	767.076904	-446.949066	259.565826	696.049988	-428.193573	354.418854	741.794556	-419.701508	195.472534	587.651245	-404.792419	223.552307	595.182373	-321.836609	139.961990	557.267273	-361.246368	411.157196	505.101501	-373.057617	303.548248	497.245850	-437.504120	-225.891190	892.554749	-254.804428	-13.231196	84.692070	-457.959747	-23.181370	81.012947	-57.733963	
2	0.0100	448.370850	1363.569336	-92.778503	461.694458	1366.341797	-406.817108	0.000000	0.000000	-0.000000	0.000000	0.000000	-0.000000	542.710022	1103.311035	-11.714528	708.304016	897.028503	-51.021671	544.590759	1104.333130	-493.958191	710.863037	906.604675	-436.273834	116.990868	1162.794556	-432.860596	82.459236	1139.256592	-98.724640	96.995331	1109.749878	-407.634186	112.583244	1091.914429	-127.031654	-47.697639	1170.467651	-203.809174	-52.518024	1178.982666	-306.914764	26.948929	1013.416199	-75.580429	48.752934	1039.504272	-465.006012	93.134865	894.843384	-62.810501	141.967026	825.719727	-68.450279	187.570557	750.078369	-83.175903	187.621231	856.351379	-78.575981	217.732224	644.985718	-105.077507	151.881027	545.656372	-70.772652	125.417656	465.017365	-70.641708	89.264732	383.457214	-81.151955	171.876617	447.430054	-105.273727	38.572922	262.063232	-99.406075	0.000000	0.000000	-0.000000	-6.999596	230.257462	-155.475098	260.456818	190.154663	-136.239853	152.762207	167.679352	-69.298706	154.289322	979.045288	-466.725586	243.186554	980.293030	-472.143188	244.457642	1034.120361	-461.077515	328.336426	972.494141	-459.754700	435.987854	914.219177	-437.798065	348.659485	840.493591	-458.242645	304.617554	766.981079	-446.920349	259.695343	695.911621	-428.183289	354.521698	741.717651	-419.676666	194.820633	587.581177	-405.618500	223.676758	594.999451	-321.822723	139.184479	557.293579	-362.402161	411.419586	505.046326	-373.061951	303.784241	497.101990	-437.509277	-225.887924	892.545349	-254.792114	-13.225787	84.678085	-457.963013	-23.190582	81.018120	-57.743950	
3	0.0150	448.375031	1363.525146	-92.716637	461.055939	1365.663086	-406.771729	0.000000	0.000000	-0.000000	0.000000	0.000000	-0.000000	542.460449	1103.286133	-11.575199	708.299133	897.016418	-51.003445	544.778870	1104.317871	-493.644440	711.583923	907.000732	-435.815338	116.987686	1162.822876	-432.919281	82.522270	1139.479004	-98.495270	96.991470	1109.761719	-407.634369	112.827202	1091.963623	-127.011787	-47.602798	1170.302856	-203.741348	-50.817101	1176.823975	-308.946350	27.177177	1013.264282	-75.383499	48.689800	1039.437622	-465.002808	93.225792	894.879089	-62.825165	141.310333	826.443787	-68.143944	187.718887	750.126282	-83.193283	187.905914	856.749634	-78.370735	217.901169	645.081421	-105.106522	151.988632	545.778076	-70.789078	125.467003	465.153717	-70.681480	89.215660	383.636414	-81.158394	171.884186	447.532745	-105.294792	38.317131	262.435822	-99.416435	0.000000	0.000000	-0.000000	-7.184720	230.513229	-155.481445	260.237915	190.224365	-136.220856	152.534103	167.800430	-69.297844	154.399033	978.980164	-466.710846	243.193802	980.253174	-472.118774	244.552658	1033.927856	-460.887573	328.328857	972.455017	-459.730194	436.077240	914.320129	-437.591980	348.697174	840.422546	-458.199860	307.179810	766.711975	-448.253418	259.973236	695.832581	-428.163025	354.614563	741.645203	-419.665161	195.728088	587.385254	-404.966858	222.207718	595.344666	-320.269501	139.285767	557.269226	-362.409637	411.683502	504.958405	-373.076080	304.045074	496.958557	-437.528931	-225.809387	892.494812	-255.022781	-13.219714	84.705338	-457.947113	-23.177738	81.011353	-57.738949	
4	0.0200	448.432129	1363.421143	-92.764496	460.833740	1365.967896	-406.751678	0.000000	0.000000	-0.000000	0.000000	0.000000	-0.000000	542.426025	1103.265259	-11.282452	708.818176	897.190063	-50.975948	544.711731	1104.304565	-493.882965	711.378784	906.778564	-435.555481	117.084267	1161.770386	-433.211273	82.498444	1139.446655	-98.460312	96.742653	1109.696655	-407.571350	112.831345	1091.865112	-126.990585	-47.614391	1170.251953	-203.728241	-49.186745	1174.754761	-310.892700	27.171200	1013.137268	-75.225349	47.895367	1039.724243	-465.510193	93.283974	894.896423	-62.829922	141.395920	826.451050	-68.172302	187.843552	750.177734	-83.193146	188.018692	856.797668	-78.407684	218.080353	645.173523	-105.172806	152.078796	545.914917	-70.906853	125.508202	465.249786	-70.686798	89.208122	383.791473	-81.165375	171.938385	447.636902	-105.351616	38.080746	262.678162	-99.455734	0.000000	0.000000	-0.000000	-7.385785	230.702545	-155.525803	260.050934	190.255753	-136.254974	152.286560	167.894516	-69.355293	154.502609	978.918213	-466.698242	243.198425	980.204346	-472.098755	247.864334	1033.832031	-458.784119	328.291016	972.221069	-459.430542	435.589539	914.396057	-437.705475	349.146271	840.352112	-458.204498	310.645020	766.390625	-450.051056	259.923584	695.837463	-428.227753	354.809021	741.509460	-419.505432	196.599640	587.194763	-404.342987	222.496048	595.170776	-320.431976	139.693222	556.846436	-362.487976	411.779053	504.747620	-373.030212	304.585083	496.935272	-437.162079	-225.833817	892.449768	-255.014725	-13.009950	84.632019	-458.225159	-23.209402	80.906975	-57.682934	
5	0.0250	448.363831	1363.356689	-92.742104	460.790100	1365.958008	-406.736664	0.000000	0.000000	-0.000000	0.000000	0.000000	-0.000000	542.488098	1103.243652	-11.816930	708.792114	897.173950	-50.967079	544.540100	1104.217163	-493.912750	711.624023	906.899841	-435.658447	117.044243	1161.773926	-433.235535	82.479149	1139.457520	-98.447578	96.987099	1109.633179	-407.588348	112.852287	1091.861816	-127.005661	-47.590477	1170.390137	-203.743774	-47.625832	1172.773560	-312.755219	27.225227	1013.445923	-75.544876	47.956665	1039.900513	-464.947113	93.374428	894.905579	-62.844795	141.613373	826.601379	-68.111122	188.041672	750.295837	-83.269508	188.120453	856.859619	-78.433022	218.283951	645.279724	-105.054535	152.222916	546.068420	-70.762405	125.561020	465.354614	-70.684891	89.154991	384.021362	-81.147491	171.968948	447.721558	-105.374138	37.973465	262.916809	-99.339851	0.000000	0.000000	-0.000000	-7.544252	231.055084	-155.475510	259.823364	190.261490	-136.279510	152.089951	168.053864	-69.275826	154.600204	978.859436	-466.687744	243.199738	980.157471	-472.079224	244.526428	1033.873169	-460.779358	328.354645	972.314697	-459.672333	435.508209	914.366028	-437.720795	349.177216	840.244446	-458.148499	313.426666	766.137695	-451.415985	260.217987	695.577820	-428.074463	355.356537	741.558838	-419.302704	197.435837	587.009705	-403.746429	222.667084	595.022644	-320.463470	140.548401	556.552307	-361.663513	412.088867	504.745087	-373.010345	304.641754	496.673645	-437.459534	-225.814575	892.449341	-255.012863	-12.922598	84.867813	-458.107452	-23.142336	80.942764	-57.875347	
